<svg xmlns="http://www.w3.org/2000/svg" xmlns:xlink="http://www.w3.org/1999/xlink" width="34" height="34" version="1.1" viewBox="0 0 34 34"><title>企业认证大</title><desc>Created with Sketch.</desc><defs><polygon id="path-1" points="0 33.498 33.498 33.498 33.498 0 0 0"/></defs><g id="Page-1" fill="none" fill-rule="evenodd" stroke="none" stroke-width="1"><g id="Desktop-HD" transform="translate(-1653.000000, -388.000000)"><g id="Page-1" transform="translate(1653.000000, 388.000000)"><path id="Fill-1" fill="#FFE300" d="M32.3642,16.7489 C32.3642,25.3729 25.3732,32.3639 16.7492,32.3639 C8.1252,32.3639 1.1332,25.3729 1.1332,16.7489 C1.1332,8.1249 8.1252,1.1339 16.7492,1.1339 C25.3732,1.1339 32.3642,8.1249 32.3642,16.7489 Z"/><polygon id="Fill-3" fill="#262727" points="15.182 23.43 10.611 16.918 11.686 15.5 15.182 19.685 22.729 11.977 24.653 12.092"/><polygon id="Fill-5" fill="#262727" points="12.376 16.308 9.44 18.19 8.846 17.487 11.489 15.257"/><mask id="mask-2" fill="#fff"><use xlink:href="#path-1"/></mask><polygon id="Fill-7" fill="#262727" points="22.7 13.352 24.652 13.352 24.652 11.977 22.7 11.977" mask="url(#mask-2)"/><path id="Fill-9" fill="#FFF" d="M16.749,0 C7.514,0 0,7.514 0,16.749 C0,25.984 7.514,33.498 16.749,33.498 C25.984,33.498 33.498,25.984 33.498,16.749 C33.498,7.514 25.984,0 16.749,0 M16.749,2.835 C24.434,2.835 30.663,9.064 30.663,16.749 C30.663,24.434 24.434,30.663 16.749,30.663 C9.064,30.663 2.835,24.434 2.835,16.749 C2.835,9.064 9.064,2.835 16.749,2.835" mask="url(#mask-2)"/></g></g></g></svg>