<svg xmlns="http://www.w3.org/2000/svg" viewBox="0 0 785 175" width="9em" height="3em">
	<path fill="#fff" id="Path 1" fill-rule="evenodd" class="shp0" d="M380.47 171.54C376.56 173.76 372.15 174.88 367.23 174.88C361.58 174.88 357.02 173.08 353.56 169.51C350.1 165.93 348.37 161.15 348.37 155.18C348.37 149.13 350.28 144.17 354.1 140.28C357.92 136.39 362.82 134.44 368.8 134.44C373.02 134.44 376.6 135.12 379.53 136.46L379.53 141.92C376.4 139.95 372.67 138.96 368.35 138.96C364.09 138.96 360.58 140.42 357.81 143.33C355.05 146.25 353.67 150.08 353.67 154.85C353.67 159.75 354.94 163.56 357.48 166.29C360.03 169.02 363.46 170.38 367.79 170.38C370.77 170.38 373.3 169.81 375.39 168.66L375.39 158.08L366.9 158.08L366.9 153.61L380.47 153.61L380.47 171.54ZM411.48 161.52L391.93 161.52C392.02 164.5 392.83 166.8 394.38 168.42C395.93 170.05 398.09 170.86 400.87 170.86C404 170.86 406.87 169.86 409.48 167.86L409.48 172.28C407.03 174.01 403.77 174.88 399.71 174.88C395.67 174.88 392.52 173.6 390.25 171.04C387.99 168.48 386.86 164.93 386.86 160.38C386.86 156.1 388.1 152.58 390.58 149.8C393.07 147.02 396.15 145.63 399.84 145.63C403.49 145.63 406.35 146.81 408.4 149.16C410.45 151.5 411.48 154.79 411.48 159.02L411.48 161.52ZM406.53 157.55C406.51 155.03 405.91 153.07 404.73 151.69C403.56 150.31 401.9 149.62 399.76 149.62C397.79 149.62 396.09 150.35 394.65 151.82C393.21 153.28 392.3 155.19 391.93 157.55L406.53 157.55ZM440.83 161.52L421.28 161.52C421.36 164.5 422.18 166.8 423.73 168.42C425.28 170.05 427.44 170.86 430.22 170.86C433.35 170.86 436.22 169.86 438.83 167.86L438.83 172.28C436.37 174.01 433.12 174.88 429.06 174.88C425.02 174.88 421.86 173.6 419.6 171.04C417.33 168.48 416.2 164.93 416.2 160.38C416.2 156.1 417.44 152.58 419.93 149.8C422.41 147.02 425.5 145.63 429.18 145.63C432.84 145.63 435.69 146.81 437.75 149.16C439.8 151.5 440.83 154.79 440.83 159.02L440.83 161.52ZM435.88 157.55C435.86 155.03 435.26 153.07 434.08 151.69C432.9 150.31 431.25 149.62 429.11 149.62C427.14 149.62 425.43 150.35 423.99 151.82C422.56 153.28 421.65 155.19 421.28 157.55L435.88 157.55ZM471.16 174.22L464.41 174.22L452.47 160.76L452.36 160.76L452.36 174.22L447.42 174.22L447.42 132.88L452.36 132.88L452.36 159.09L452.47 159.09L463.8 146.29L470.17 146.29L457.54 159.72L471.16 174.22ZM489.69 166.87C490.89 167.91 492.48 168.77 494.49 169.44C496.49 170.12 498.4 170.45 500.2 170.45C505.69 170.45 508.43 168.5 508.43 164.6C508.43 163.5 508.14 162.52 507.55 161.64C506.96 160.77 506.15 159.99 505.12 159.32C504.09 158.65 502.17 157.61 499.34 156.21C495.42 154.26 492.83 152.44 491.58 150.77C490.34 149.09 489.72 147.18 489.72 145.03C489.72 141.78 491.02 139.2 493.63 137.29C496.24 135.39 499.53 134.44 503.51 134.44C507.4 134.44 510.25 134.91 512.07 135.86L512.07 141.36C509.71 139.73 506.73 138.91 503.13 138.91C500.74 138.91 498.79 139.41 497.28 140.42C495.78 141.42 495.02 142.81 495.02 144.6C495.02 146.18 495.54 147.46 496.59 148.46C497.63 149.45 499.89 150.81 503.38 152.53C507.22 154.36 509.9 156.2 511.44 158.03C512.97 159.87 513.73 161.93 513.73 164.22C513.73 167.65 512.49 170.29 509.99 172.12C507.5 173.96 504.04 174.87 499.62 174.87C498.07 174.87 496.26 174.66 494.2 174.23C492.14 173.8 490.64 173.27 489.69 172.63L489.69 166.87ZM540.03 172.96C537.89 174.24 535.31 174.87 532.3 174.87C528.26 174.87 525.01 173.58 522.55 170.99C520.09 168.39 518.86 165.04 518.86 160.91C518.86 156.33 520.19 152.64 522.84 149.84C525.49 147.03 529.04 145.63 533.49 145.63C536.05 145.63 538.23 146.08 540.05 147L540.05 151.9C538.08 150.45 535.89 149.72 533.49 149.72C530.66 149.72 528.35 150.7 526.58 152.66C524.8 154.62 523.91 157.24 523.91 160.5C523.91 163.72 524.75 166.24 526.43 168.06C528.1 169.87 530.36 170.79 533.21 170.79C535.62 170.79 537.89 169.99 540.03 168.41L540.03 172.96ZM570.25 174.22L565.33 174.22L565.33 158.16C565.33 152.54 563.24 149.72 559.07 149.72C556.93 149.72 555.15 150.54 553.74 152.19C552.32 153.83 551.62 155.89 551.62 158.39L551.62 174.22L546.67 174.22L546.67 132.88L551.62 132.88L551.62 150.89L551.72 150.89C553.86 147.38 556.89 145.63 560.84 145.63C567.11 145.63 570.25 149.43 570.25 157.02L570.25 174.22ZM576.64 160.55C576.64 155.94 577.93 152.3 580.5 149.63C583.08 146.97 586.57 145.63 590.99 145.63C595.18 145.63 598.47 146.92 600.85 149.48C603.23 152.05 604.42 155.6 604.42 160.13C604.42 164.54 603.15 168.1 600.61 170.81C598.07 173.52 594.66 174.87 590.38 174.87C586.21 174.87 582.87 173.56 580.38 170.94C577.89 168.31 576.64 164.85 576.64 160.55ZM581.69 160.4C581.69 163.62 582.5 166.15 584.13 168.01C585.75 169.86 587.94 170.78 590.68 170.78C593.51 170.78 595.67 169.88 597.15 168.07C598.63 166.26 599.37 163.66 599.37 160.28C599.37 156.88 598.63 154.27 597.15 152.45C595.67 150.63 593.51 149.72 590.68 149.72C587.9 149.72 585.71 150.67 584.1 152.58C582.5 154.48 581.69 157.09 581.69 160.4ZM611.37 132.88L616.32 132.88L616.32 174.22L611.37 174.22L611.37 132.88ZM625.81 148.23C628.59 146.5 631.8 145.63 635.43 145.63C642.17 145.63 645.53 149.17 645.53 156.24L645.53 174.22L640.64 174.22L640.64 169.9L640.51 169.9C638.57 173.22 635.72 174.88 631.95 174.88C629.24 174.88 627.08 174.14 625.48 172.68C623.89 171.21 623.08 169.24 623.08 166.74C623.08 161.52 626.17 158.49 632.35 157.63L640.64 156.47C640.64 151.9 638.75 149.62 634.98 149.62C631.63 149.62 628.57 150.75 625.81 153L625.81 148.23ZM634.09 161.09C631.8 161.39 630.23 161.96 629.36 162.8C628.49 163.65 628.06 164.82 628.06 166.34C628.06 167.67 628.53 168.75 629.47 169.6C630.42 170.44 631.66 170.86 633.21 170.86C635.37 170.86 637.14 170.1 638.54 168.59C639.94 167.07 640.64 165.17 640.64 162.88L640.64 160.2L634.09 161.09ZM668.72 151.19C667.9 150.6 666.76 150.3 665.31 150.3C663.39 150.3 661.81 151.2 660.56 152.99C659.32 154.79 658.69 157.15 658.69 160.08L658.69 174.22L653.74 174.22L653.74 146.29L658.69 146.29L658.69 151.97L658.79 151.97C660.21 147.86 662.65 145.81 666.12 145.81C667.25 145.81 668.11 145.94 668.72 146.19L668.72 151.19ZM504.04 77L519.61 77L519.61 112.63L510.27 112.63L510.27 86.34L494.89 86.34L472.15 109.57C472.46 110.48 472.66 111.44 472.66 112.46C472.66 117.44 468.62 121.47 463.65 121.47C458.66 121.47 454.63 117.44 454.63 112.46C454.63 107.48 458.66 103.44 463.65 103.44C464.09 103.44 464.52 103.51 464.95 103.57L511.6 55.92L518.28 62.46L504.04 77ZM784.47 109.28C784.47 114.26 780.43 118.3 775.45 118.3C770.47 118.3 766.44 114.26 766.44 109.28C766.44 106.05 768.15 103.24 770.71 101.65C770.64 92.83 763.45 85.67 754.61 85.67L738.31 85.67L738.31 59.25L732.18 59.25L732.18 112.46L722.83 112.46L722.83 59.25L716.41 59.25L716.41 85.84L695.1 85.84L695.1 112.43L643.41 112.43L643.41 103.09L685.75 103.09L685.75 76.5L707.07 76.5L707.07 59.25L656.84 59.25L656.84 45.88L581.22 45.88L581.22 54.42L571.87 54.42L571.87 36.54L666.19 36.54L666.19 49.9L722.83 49.9L722.83 12.61L732.18 12.61L732.18 49.9L738.31 49.9C738.33 35.76 749.85 24.25 764.01 24.25L765.67 24.25C767.26 21.65 770.09 19.9 773.35 19.9C778.33 19.9 782.36 23.94 782.36 28.92C782.36 33.9 778.33 37.94 773.35 37.94C770.09 37.94 767.25 36.19 765.67 33.59L764.01 33.59C755 33.59 747.68 40.91 747.66 49.9L775.45 49.9L775.45 59.25L747.65 59.25L747.65 76.32L754.61 76.32C768.58 76.32 779.94 87.63 780.05 101.57C782.69 103.14 784.47 105.99 784.47 109.28ZM624.53 85.67L624.53 112.43L576.55 112.43L576.55 103.08L615.19 103.08L615.19 85.67L555.04 85.67L555.04 112.43L531.48 112.43L531.48 103.08L545.69 103.08L545.69 85.67L526.81 85.67L526.81 41.77C526.81 36.67 522.67 32.52 517.56 32.52L492.26 32.52L478.34 49.9L506.07 49.9L467.1 90.73L437.07 90.73L437.07 32.82C437.07 27.18 432.49 22.6 426.85 22.6L422.28 22.6L422.28 103.44L437.46 103.44L437.46 112.78L412.94 112.78L412.94 22.6L398.72 22.6L398.72 60.36L365.44 60.36L365.44 103.44L389.67 103.44L389.67 88.83C386.92 87.28 385.04 84.37 385.04 80.99C385.04 76.01 389.07 71.98 394.05 71.98C399.03 71.98 403.07 76.01 403.07 80.99C403.07 84.14 401.46 86.9 399.02 88.51L399.02 112.78L356.09 112.78L356.09 41.93L333.85 41.93C332.27 44.53 329.44 46.27 326.18 46.27C321.2 46.27 317.16 42.24 317.16 37.26C317.16 32.28 321.2 28.24 326.18 28.24C329.44 28.24 332.27 29.99 333.85 32.59L356.09 32.59L356.09 13.25L426.85 13.25C437.64 13.25 446.41 22.03 446.41 32.82L446.41 81.38L463.1 81.38L484.23 59.24L458.87 59.24L480.29 32.52L455.96 32.52L455.96 16.84C453.36 15.26 451.61 12.43 451.61 9.16C451.61 4.18 455.65 0.15 460.63 0.15C465.61 0.15 469.64 4.18 469.64 9.16C469.64 12.43 467.89 15.26 465.3 16.84L465.3 23.18L485.35 23.18L485.35 13.07L494.69 13.07L494.69 23.18L517.56 23.18C527.82 23.18 536.16 31.52 536.16 41.77L536.16 76.32L545.69 76.32L545.69 12.67L589.8 12.67L603.46 29.8L596.16 35.63L585.3 22.01L555.04 22.01L555.04 76.32L615.19 76.32L615.19 69.41L627.82 59.24L590.07 59.24L590.07 49.9L641.08 49.9L641.08 54.57L644.01 58.21L624.53 73.89L624.53 76.32L658.97 76.32C660.61 74.11 663.22 72.65 666.19 72.65C671.17 72.65 675.21 76.69 675.21 81.67C675.21 86.65 671.17 90.69 666.19 90.69C662.65 90.69 659.62 88.63 658.14 85.67L624.53 85.67ZM365.44 51.01L389.38 51.01L389.38 41.93L365.44 41.93L365.44 51.01ZM389.38 22.6L365.44 22.6L365.44 32.59L389.38 32.59L389.38 22.6ZM621.39 33.59L606.46 11.8L614.17 6.52L626.31 24.25L635.34 24.25L650.69 7.93L689.17 7.93C690.75 5.34 693.58 3.59 696.85 3.59C701.83 3.59 705.86 7.62 705.86 12.6C705.86 17.58 701.83 21.62 696.85 21.62C693.58 21.62 690.75 19.87 689.17 17.28L654.73 17.28L639.37 33.59L621.39 33.59ZM296.05 55.6C296.05 62.91 290.12 68.84 282.81 68.84C277.89 68.84 273.65 66.13 271.37 62.15L230.53 62.15L230.53 24.31L147.59 24.31C128.71 24.31 113.34 41.11 113.34 61.77L113.34 97.61L142.49 97.61L142.49 49.04L207.62 49.04L207.62 62.15L155.61 62.15L155.61 110.73L113.34 110.73L113.34 151.77L200.89 151.77C217.24 151.77 230.53 137.2 230.53 119.28L230.53 110.73L185.57 110.73L185.57 97.61L243.65 97.61L243.65 119.28C243.65 144.43 224.47 164.89 200.89 164.89L100.23 164.89L100.23 110.73L73.86 110.73L73.86 164.89L25.59 164.89C23.3 168.86 19.06 171.57 14.15 171.57C6.84 171.57 0.91 165.64 0.91 158.33C0.91 151.02 6.84 145.09 14.15 145.09C19.06 145.09 23.31 147.8 25.59 151.77L60.75 151.77L60.75 97.61L100.23 97.61L100.23 61.77C100.23 33.88 121.47 11.19 147.59 11.19L243.65 11.19L243.65 49.04L271.37 49.04C273.65 45.06 277.89 42.35 282.81 42.35C290.12 42.35 296.05 48.28 296.05 55.6Z" />
</svg>